<svg id="visual" viewBox="0 0 900 600" width="900" height="600" xmlns="http://www.w3.org/2000/svg" xmlns:xlink="http://www.w3.org/1999/xlink" version="1.1"><rect x="0" y="0" width="900" height="600" fill="#ffffff"></rect><g fill="#a3c0f6"><circle r="60" cx="839" cy="253"></circle><circle r="38" cx="576" cy="345"></circle><circle r="37" cx="645" cy="577"></circle><circle r="46" cx="223" cy="113"></circle><circle r="46" cx="347" cy="565"></circle><circle r="45" cx="98" cy="342"></circle><circle r="44" cx="455" cy="104"></circle><circle r="57" cx="308" cy="259"></circle><circle r="54" cx="53" cy="39"></circle><circle r="50" cx="811" cy="53"></circle><circle r="56" cx="180" cy="490"></circle><circle r="50" cx="482" cy="565"></circle><circle r="46" cx="707" cy="473"></circle><circle r="37" cx="695" cy="200"></circle><circle r="37" cx="833" cy="400"></circle><circle r="39" cx="303" cy="406"></circle><circle r="49" cx="13" cy="455"></circle><circle r="56" cx="586" cy="123"></circle><circle r="53" cx="480" cy="431"></circle><circle r="51" cx="825" cy="576"></circle></g></svg>